<svg width="25" height="24" viewBox="0 0 25 24" fill="none" xmlns="http://www.w3.org/2000/svg">
<path fill-rule="evenodd" clip-rule="evenodd" d="M18.753 2.47803C20.8136 1.61944 22.8809 3.68666 22.0223 5.74726L16.0988 19.9637C14.9403 22.744 10.8655 22.274 10.3703 19.3031L9.63133 14.869L5.19725 14.13C2.22626 13.6348 1.75632 9.55999 4.5366 8.40154L18.753 2.47803ZM20.1761 4.97803C20.3478 4.56591 19.9344 4.15246 19.5223 4.32418L5.30583 10.2477C4.37907 10.6338 4.53572 11.9921 5.52605 12.1572L9.96013 12.8962C10.8031 13.0367 11.4636 13.6972 11.6041 14.5402L12.3431 18.9743C12.5082 19.9646 13.8665 20.1212 14.2526 19.1945L20.1761 4.97803Z" fill="white"/>
</svg>
