<svg width="25" height="25" viewBox="0 0 25 25" fill="none" xmlns="http://www.w3.org/2000/svg">
<path fill-rule="evenodd" clip-rule="evenodd" d="M19.875 6.29707H5.875C4.38383 6.29707 3.175 7.5059 3.175 8.99707V17.9971C3.175 19.4882 4.38383 20.6971 5.875 20.6971H19.875C21.3662 20.6971 22.575 19.4882 22.575 17.9971V8.99707C22.575 7.5059 21.3662 6.29707 19.875 6.29707ZM5.875 4.99707C3.66586 4.99707 1.875 6.78793 1.875 8.99707V17.9971C1.875 20.2062 3.66586 21.9971 5.875 21.9971H19.875C22.0841 21.9971 23.875 20.2062 23.875 17.9971V8.99707C23.875 6.78793 22.0841 4.99707 19.875 4.99707H5.875Z" fill="#178FE1"/>
<path fill-rule="evenodd" clip-rule="evenodd" d="M5.19922 10.1992C5.19922 9.64693 5.64693 9.19922 6.19922 9.19922H19.5497C20.102 9.19922 20.5497 9.64693 20.5497 10.1992C20.5497 10.7515 20.102 11.1992 19.5497 11.1992H6.19922C5.64693 11.1992 5.19922 10.7515 5.19922 10.1992Z" fill="#004373"/>
</svg>
