<svg width="25" height="25" viewBox="0 0 25 25" fill="none" xmlns="http://www.w3.org/2000/svg">
<path d="M6.55675 7.72963C6.18091 7.35379 5.5672 7.35101 5.2313 7.76293C4.25343 8.9621 3.58005 10.3862 3.27629 11.9133C2.90973 13.7561 3.09786 15.6662 3.81689 17.4021C4.53593 19.138 5.75357 20.6217 7.31583 21.6656C8.8781 22.7095 10.7148 23.2666 12.5938 23.2666C14.4727 23.2666 16.3094 22.7095 17.8717 21.6656C19.4339 20.6217 20.6516 19.138 21.3706 17.4021C22.0896 15.6662 22.2778 13.7561 21.9112 11.9133C21.6074 10.3862 20.9341 8.9621 19.9562 7.76293C19.6203 7.35101 19.0066 7.35379 18.6308 7.72963C18.2549 8.10546 18.2606 8.71157 18.5858 9.132C19.3 10.0555 19.794 11.1352 20.0234 12.2888C20.3157 13.7582 20.1657 15.2814 19.5923 16.6655C19.019 18.0497 18.0481 19.2328 16.8023 20.0652C15.5566 20.8976 14.092 21.3419 12.5938 21.3419C11.0955 21.3419 9.63092 20.8976 8.38518 20.0652C7.13944 19.2328 6.16851 18.0497 5.59515 16.6655C5.0218 15.2814 4.87179 13.7582 5.16408 12.2888C5.39353 11.1352 5.88746 10.0555 6.60173 9.132C6.92691 8.71157 6.93258 8.10546 6.55675 7.72963Z" fill="#178FE1"/>
<path fill-rule="evenodd" clip-rule="evenodd" d="M18.2726 12.0175L13.1615 17.1285C12.8479 17.4422 12.3393 17.4422 12.0257 17.1285L6.91462 12.0175C6.60098 11.7038 6.60098 11.1953 6.91462 10.8817C7.22826 10.568 7.73677 10.568 8.05041 10.8817L11.7905 14.6217L11.7905 2.51846C11.7905 2.07491 12.15 1.71533 12.5936 1.71533C13.0372 1.71533 13.3967 2.07491 13.3967 2.51846L13.3967 14.6217L17.1368 10.8817C17.4504 10.568 17.9589 10.568 18.2726 10.8817C18.5862 11.1953 18.5862 11.7038 18.2726 12.0175Z" fill="#004373"/>
</svg>
