<svg width="15" height="15" viewBox="0 0 15 15" fill="none" xmlns="http://www.w3.org/2000/svg">
<path fill-rule="evenodd" clip-rule="evenodd" d="M8.13447 9.56968L12.3509 5.35327C12.6096 5.09453 12.6096 4.67503 12.3509 4.41629C12.0921 4.15756 11.6726 4.15756 11.4139 4.41629L8.32852 7.50167L8.32852 0.412109H12.666C13.7706 0.412109 14.666 1.30754 14.666 2.41211V12.4121C14.666 13.5167 13.7706 14.4121 12.666 14.4121H2.66602C1.56145 14.4121 0.666016 13.5167 0.666016 12.4121V2.41211C0.666016 1.30754 1.56145 0.412109 2.66602 0.412109H7.00343L7.00343 7.50167L3.91806 4.4163C3.65932 4.15756 3.23982 4.15756 2.98108 4.4163C2.72234 4.67503 2.72234 5.09453 2.98108 5.35327L7.19749 9.56968C7.45623 9.82842 7.87573 9.82842 8.13447 9.56968Z" fill="white"/>
</svg>
