<svg width="25" height="25" viewBox="0 0 25 25" fill="none" xmlns="http://www.w3.org/2000/svg">
<path d="M6.05675 7.62318C5.68091 7.24735 5.0672 7.24456 4.7313 7.65648C3.75343 8.85566 3.08005 10.2797 2.77629 11.8068C2.40973 13.6496 2.59786 15.5598 3.31689 17.2957C4.03593 19.0316 5.25357 20.5153 6.81583 21.5591C8.3781 22.603 10.2148 23.1602 12.0938 23.1602C13.9727 23.1602 15.8094 22.603 17.3717 21.5591C18.9339 20.5153 20.1516 19.0316 20.8706 17.2957C21.5896 15.5598 21.7778 13.6496 21.4112 11.8068C21.1074 10.2797 20.4341 8.85566 19.4562 7.65648C19.1203 7.24456 18.5066 7.24735 18.1308 7.62318C17.7549 7.99902 17.7606 8.60513 18.0858 9.02556C18.8 9.94902 19.294 11.0288 19.5234 12.1823C19.8157 13.6518 19.6657 15.1749 19.0923 16.5591C18.519 17.9433 17.5481 19.1264 16.3023 19.9588C15.0566 20.7911 13.592 21.2354 12.0938 21.2354C10.5955 21.2354 9.13092 20.7911 7.88518 19.9588C6.63944 19.1264 5.66851 17.9433 5.09515 16.5591C4.5218 15.1749 4.37179 13.6518 4.66408 12.1823C4.89353 11.0288 5.38746 9.94902 6.10173 9.02556C6.42691 8.60513 6.43258 7.99902 6.05675 7.62318Z" fill="#178FE1"/>
<path fill-rule="evenodd" clip-rule="evenodd" d="M6.41492 5.4093L11.526 0.298213C11.8396 -0.0154285 12.3482 -0.0154285 12.6618 0.298213L17.7729 5.4093C18.0865 5.72294 18.0865 6.23146 17.7729 6.5451C17.4592 6.85874 16.9507 6.85874 16.6371 6.5451L12.897 2.80504L12.897 14.9083C12.897 15.3519 12.5375 15.7114 12.0939 15.7114C11.6503 15.7114 11.2908 15.3519 11.2908 14.9083L11.2908 2.80504L7.55072 6.5451C7.23707 6.85874 6.72856 6.85874 6.41492 6.5451C6.10128 6.23146 6.10128 5.72294 6.41492 5.4093Z" fill="#004373"/>
</svg>
