<svg width="15" height="15" viewBox="0 0 15 15" fill="none" xmlns="http://www.w3.org/2000/svg">
<path fill-rule="evenodd" clip-rule="evenodd" d="M7.19757 0.605187L2.98116 4.82159C2.72242 5.08033 2.72242 5.49983 2.98116 5.75857C3.2399 6.01731 3.6594 6.01731 3.91814 5.75857L7.00351 2.6732V7.3729H2.66602C1.56145 7.3729 0.666016 8.26833 0.666016 9.3729V12.4121C0.666016 13.5167 1.56145 14.4121 2.66602 14.4121H12.666C13.7706 14.4121 14.666 13.5167 14.666 12.4121V9.3729C14.666 8.26833 13.7706 7.3729 12.666 7.3729H8.3286V2.6732L11.414 5.75857C11.6727 6.01731 12.0922 6.01731 12.3509 5.75857C12.6097 5.49983 12.6097 5.08033 12.3509 4.82159L8.13455 0.605187C7.87581 0.346448 7.45631 0.346448 7.19757 0.605187ZM8.3286 7.3729H7.00351V10.7191C7.00351 11.0851 7.30014 11.3817 7.66606 11.3817C8.03197 11.3817 8.3286 11.0851 8.3286 10.7191V7.3729Z" fill="white"/>
</svg>
