<svg width="25" height="25" viewBox="0 0 25 25" fill="none" xmlns="http://www.w3.org/2000/svg">
<g clip-path="url(#clip0_9881_97594)">
<path d="M9.2245 6.22743C8.21535 6.16164 7.20338 6.30249 6.25055 6.64138C5.29772 6.98026 4.42407 7.51004 3.6831 8.19829C2.94212 8.88653 2.3494 9.71876 1.94123 10.644C1.53305 11.5693 1.31801 12.5681 1.30926 13.5794C1.30051 14.5907 1.49824 15.5931 1.89034 16.5253C2.28245 17.4575 2.86068 18.2998 3.58963 19.0008C4.31859 19.7017 5.18294 20.2466 6.12976 20.6019C7.07659 20.9572 8.08597 21.1155 9.09611 21.0672L8.99805 19.0172C8.26685 19.0522 7.53621 18.9376 6.85085 18.6804C6.16549 18.4232 5.53983 18.0288 5.01217 17.5214C4.48451 17.014 4.06596 16.4043 3.78213 15.7295C3.49831 15.0548 3.35518 14.3292 3.36151 13.5972C3.36784 12.8652 3.52351 12.1421 3.81896 11.4724C4.11442 10.8026 4.54346 10.2002 5.07982 9.70202C5.61618 9.20383 6.24857 8.82035 6.93828 8.57505C7.62799 8.32975 8.3605 8.22779 9.09098 8.27541L9.2245 6.22743Z" fill="#004373"/>
<path d="M6.86858 17.3794C6.39065 17.612 6.1877 18.1912 6.46741 18.6431C7.41661 20.1768 8.78697 21.4147 10.424 22.203C12.3511 23.1309 14.5351 23.3814 16.6223 22.9138C18.7095 22.4461 20.5778 21.2878 21.9249 19.6263C23.2719 17.9648 24.0188 15.8974 24.0447 13.7586C24.0706 11.6198 23.374 9.53482 22.0676 7.84118C20.7612 6.14755 18.9214 4.94436 16.8461 4.42635C14.7708 3.90834 12.5815 4.10584 10.6324 4.98687C8.9768 5.73525 7.57687 6.93961 6.59082 8.44987C6.30025 8.89492 6.48912 9.47886 6.96127 9.72294C7.43343 9.96702 8.00924 9.7777 8.31118 9.34028C9.09014 8.21177 10.1647 7.31054 11.4252 6.74078C12.9794 6.03826 14.7252 5.88077 16.38 6.29383C18.0348 6.70688 19.5018 7.6663 20.5435 9.01679C21.5853 10.3673 22.1408 12.0298 22.1201 13.7353C22.0995 15.4407 21.5039 17.0893 20.4298 18.4142C19.3556 19.739 17.8658 20.6627 16.2015 21.0355C14.5372 21.4084 12.7957 21.2087 11.259 20.4688C10.0127 19.8686 8.96023 18.9417 8.20882 17.7946C7.91756 17.35 7.3465 17.1468 6.86858 17.3794Z" fill="#178FE1"/>
<path fill-rule="evenodd" clip-rule="evenodd" d="M11.8898 9.5401L15.5832 13.2335C15.8099 13.4601 15.8099 13.8276 15.5832 14.0542L11.8898 17.7476C11.6632 17.9742 11.2957 17.9742 11.0691 17.7476C10.8424 17.521 10.8424 17.1535 11.0691 16.9268L13.7717 14.2242H5.02567C4.70515 14.2242 4.44531 13.9644 4.44531 13.6438C4.44531 13.3233 4.70515 13.0635 5.02567 13.0635H13.7717L11.0691 10.3608C10.8424 10.1342 10.8424 9.76674 11.0691 9.5401C11.2957 9.31346 11.6632 9.31346 11.8898 9.5401Z" fill="#178FE1"/>
</g>
<defs>
<clipPath id="clip0_9881_97594">
<rect width="24" height="24" fill="white" transform="translate(0.375 0.0458984)"/>
</clipPath>
</defs>
</svg>
